<?xml version="1.0" encoding="UTF-8"?>
<svg version="1.1" xmlns="http://www.w3.org/2000/svg" width="257" height="240">
<path d="M0 0 C5.61 0 11.22 0 17 0 C18 1 18 1 18.12025452 3.24623108 C18.1169236 4.73515114 18.1169236 4.73515114 18.11352539 6.25415039 C18.11344986 7.37523697 18.11337433 8.49632355 18.11329651 9.65138245 C18.10813522 10.8711528 18.10297394 12.09092316 18.09765625 13.34765625 C18.0962413 14.58921982 18.09482635 15.83078339 18.09336853 17.10997009 C18.08870591 20.41605491 18.07971497 23.72207146 18.06866455 27.02813721 C18.05844827 30.3996115 18.05387045 33.77109283 18.04882812 37.14257812 C18.03777395 43.76174018 18.0204966 50.38086071 18 57 C25.26 57 32.52 57 40 57 C40 61.62 40 66.24 40 71 C26.8 71 13.6 71 0 71 C0 47.57 0 24.14 0 0 Z " fill="#141414" transform="translate(106,70)"/>
<path d="M0 0 C3.03985194 2.06968643 4.69780336 3.51287443 5.4453125 7.19140625 C5.64029514 11.13655494 5.53575015 13.28566647 3.125 16.5 C-0.45399658 19.02635053 -2.59644104 19.42341913 -7 19 C-12.57894737 15.84210526 -12.57894737 15.84210526 -14 13 C-14.70153846 5.86769231 -14.70153846 5.86769231 -11.625 2.0625 C-7.32198817 -1.31843787 -5.37649402 -1.27577824 0 0 Z " fill="#C8FF82" transform="translate(162,129)"/>
</svg>
